<svg xmlns="http://www.w3.org/2000/svg" viewBox="0 0 282.35 22"><path d="M167,8.39a.41.41,0,0,0-.31-.28L159.56,7,156.35.24a.38.38,0,0,0-.71,0L152.46,7l-7.12,1.09a.41.41,0,0,0-.31.28.43.43,0,0,0,.1.43l5.15,5.27-1.21,7.45a.43.43,0,0,0,.16.41.37.37,0,0,0,.42,0L156,18.46l6.36,3.47a.38.38,0,0,0,.42,0,.42.42,0,0,0,.16-.41l-1.21-7.45,5.15-5.27A.43.43,0,0,0,167,8.39Z" fill="#c8cbd2"/><path d="M22,8.39a.4.4,0,0,0-.31-.28L14.56,7,11.35.24a.38.38,0,0,0-.71,0L7.46,7,.35,8.1A.4.4,0,0,0,0,8.39a.43.43,0,0,0,.1.43l5.16,5.27L4.07,21.53a.43.43,0,0,0,.16.41.37.37,0,0,0,.42,0L11,18.46l6.36,3.47a.38.38,0,0,0,.42,0,.42.42,0,0,0,.16-.41l-1.21-7.45L21.87,8.8A.43.43,0,0,0,22,8.39Z" fill="#056cde"/><path d="M51,8.39a.4.4,0,0,0-.31-.28L43.56,7,40.35.24a.38.38,0,0,0-.71,0L36.46,7,29.35,8.1a.4.4,0,0,0-.34.29.43.43,0,0,0,.1.43l5.16,5.27-1.21,7.45a.43.43,0,0,0,.16.41.37.37,0,0,0,.42,0L40,18.46l6.36,3.47a.38.38,0,0,0,.42,0,.42.42,0,0,0,.16-.41l-1.21-7.45L50.87,8.8A.43.43,0,0,0,51,8.39Z" fill="#056cde"/><path d="M138.24,8.39a.4.4,0,0,0-.31-.28L130.82,7,127.6.24a.38.38,0,0,0-.71,0L123.72,7,116.61,8.1a.4.4,0,0,0-.34.29.43.43,0,0,0,.1.43l5.16,5.27-1.21,7.45a.43.43,0,0,0,.16.41.37.37,0,0,0,.42,0l6.36-3.47,6.36,3.47a.38.38,0,0,0,.42,0,.42.42,0,0,0,.16-.41L133,14.09l5.14-5.28A.43.43,0,0,0,138.24,8.39Z" fill="#056cde"/><path d="M109.24,8.39a.4.4,0,0,0-.31-.28L101.82,7,98.6.24a.38.38,0,0,0-.71,0L94.72,7,87.61,8.1a.4.4,0,0,0-.34.29.43.43,0,0,0,.1.43l5.16,5.27-1.21,7.45a.43.43,0,0,0,.16.41.37.37,0,0,0,.42,0l6.36-3.47,6.36,3.47a.38.38,0,0,0,.42,0,.42.42,0,0,0,.16-.41L104,14.09l5.14-5.28A.43.43,0,0,0,109.24,8.39Z" fill="#056cde"/><path d="M80,8.39a.4.4,0,0,0-.31-.28L72.56,7,69.35.24a.38.38,0,0,0-.71,0L65.46,7,58.35,8.1a.4.4,0,0,0-.34.29.43.43,0,0,0,.1.43l5.16,5.27-1.21,7.45a.43.43,0,0,0,.16.41.37.37,0,0,0,.42,0L69,18.46l6.36,3.47a.38.38,0,0,0,.42,0,.42.42,0,0,0,.16-.41l-1.21-7.45L79.87,8.8A.43.43,0,0,0,80,8.39Z" fill="#056cde"/><path d="M196,8.39a.41.41,0,0,0-.31-.28L188.56,7,185.35.24a.38.38,0,0,0-.71,0L181.46,7l-7.12,1.09a.41.41,0,0,0-.31.28.43.43,0,0,0,.1.43l5.15,5.27-1.21,7.45a.43.43,0,0,0,.16.41.37.37,0,0,0,.42,0L185,18.46l6.36,3.47a.38.38,0,0,0,.42,0,.42.42,0,0,0,.16-.41l-1.21-7.45,5.15-5.27A.43.43,0,0,0,196,8.39Z" fill="#c8cbd2"/><path d="M225.16,8.39a.41.41,0,0,0-.31-.28L217.73,7,214.51.24a.38.38,0,0,0-.71,0L210.63,7l-7.12,1.09a.41.41,0,0,0-.31.28.43.43,0,0,0,.1.43l5.15,5.27-1.21,7.45a.43.43,0,0,0,.16.41.37.37,0,0,0,.42,0l6.36-3.47,6.36,3.47a.38.38,0,0,0,.42,0,.42.42,0,0,0,.16-.41l-1.21-7.45,5.15-5.27A.43.43,0,0,0,225.16,8.39Z" fill="#c8cbd2"/><path d="M253.66,8.39a.41.41,0,0,0-.31-.28L246.23,7,243,.24a.38.38,0,0,0-.71,0L239.13,7,232,8.11a.41.41,0,0,0-.31.28.43.43,0,0,0,.1.43L237,14.09l-1.21,7.45a.43.43,0,0,0,.16.41.37.37,0,0,0,.42,0l6.36-3.47L249,21.94a.38.38,0,0,0,.42,0,.42.42,0,0,0,.16-.41l-1.21-7.45,5.15-5.27A.43.43,0,0,0,253.66,8.39Z" fill="#c8cbd2"/><path d="M282.33,8.39a.41.41,0,0,0-.31-.28L274.9,7,271.68.24a.38.38,0,0,0-.71,0L267.79,7l-7.12,1.09a.41.41,0,0,0-.31.28.43.43,0,0,0,.1.43l5.15,5.27-1.21,7.45a.43.43,0,0,0,.16.41.37.37,0,0,0,.42,0l6.36-3.47,6.36,3.47a.38.38,0,0,0,.42,0,.42.42,0,0,0,.16-.41l-1.21-7.45,5.15-5.27A.43.43,0,0,0,282.33,8.39Z" fill="#c8cbd2"/></svg>