<svg xmlns="http://www.w3.org/2000/svg" viewBox="0 0 51.95 70"><defs><clipPath id="a" transform="translate(-9.02 .14)"><path fill="none" d="M0 0H70V70H0z"/></clipPath></defs><g clip-path="url(#a)" fill="#ffce51"><path d="M35,8.07a17.67,17.67,0,0,0-7.15,1.5,1.37,1.37,0,1,0,1.1,2.5,15,15,0,1,1-7,6.25A1.37,1.37,0,0,0,19.61,17,17.77,17.77,0,1,0,35,8.07Z" transform="translate(-9.02 .14)"/><path d="M60.62,24.92l-4.33-4.79,1.36-6.31a1.37,1.37,0,0,0-.92-1.59l-6.14-2-2-6.14A1.37,1.37,0,0,0,47,3.19L40.7,4.55,35.92.22a1.37,1.37,0,0,0-1.83,0L29.29,4.55,23,3.19a1.37,1.37,0,0,0-1.59.92l-2,6.14-6.14,2a1.37,1.37,0,0,0-.92,1.59l1.36,6.31L9.38,24.92a1.37,1.37,0,0,0,0,1.83l4.33,4.79-1.36,6.31a1.37,1.37,0,0,0,.92,1.59l6.14,2,.05.16L13.26,64.75a1.37,1.37,0,0,0,2,1.51l6.92-4.34L26,69.14a1.37,1.37,0,0,0,1.21.73h.15a1.37,1.37,0,0,0,1.17-1l4.82-18,.68.62a1.37,1.37,0,0,0,1.83,0l.68-.62,4.82,18a1.37,1.37,0,0,0,1.17,1h.15a1.37,1.37,0,0,0,1.21-.73l3.82-7.21,6.92,4.34a1.37,1.37,0,0,0,2-1.51L55,58.31a1.37,1.37,0,0,0-2.64.71l.83,3.08L48,58.82a1.37,1.37,0,0,0-1.93.52l-2.88,5.44-4.29-16,1.83-1.65L47,48.49a1.37,1.37,0,0,0,1.59-.92L49,46.38l.94,3.53a1.37,1.37,0,0,0,1.32,1,1.38,1.38,0,0,0,.36,0,1.37,1.37,0,0,0,1-1.67l-2-7.61.05-.16,6.15-2a1.37,1.37,0,0,0,.92-1.59l-1.36-6.31,4.33-4.79A1.37,1.37,0,0,0,60.62,24.92ZM26.84,64.78,24,59.34A1.37,1.37,0,0,0,22,58.82L16.8,62.09,21,46.38l.38,1.19a1.37,1.37,0,0,0,1.59.92l6.31-1.36,1.83,1.65Zm27-34.55a1.37,1.37,0,0,0-.32,1.2l1.24,5.79L49.08,39a1.37,1.37,0,0,0-.88.88l-1.82,5.63-5.79-1.24a1.36,1.36,0,0,0-1.2.32l-4.39,4-4.39-4a1.37,1.37,0,0,0-.92-.35,1.34,1.34,0,0,0-.29,0l-5.79,1.24L21.8,39.92a1.37,1.37,0,0,0-.88-.88l-5.63-1.82,1.24-5.79a1.37,1.37,0,0,0-.32-1.2l-4-4.39,4-4.39a1.37,1.37,0,0,0,.32-1.2l-1.24-5.79,5.63-1.82a1.37,1.37,0,0,0,.88-.88l1.82-5.63L29.4,7.37A1.37,1.37,0,0,0,30.61,7l4.39-4,4.39,4a1.37,1.37,0,0,0,1.2.32l5.79-1.24,1.82,5.63a1.37,1.37,0,0,0,.88.88l5.63,1.82-1.24,5.79a1.37,1.37,0,0,0,.32,1.2l4,4.39Z" transform="translate(-9.02 .14)"/><path d="M51.94,52a1.37,1.37,0,1,0,1.66,1h0A1.37,1.37,0,0,0,51.94,52Z" transform="translate(-9.02 .14)"/><path d="M28.41,28.76,28,33.09a2.15,2.15,0,0,0,2.13,2.32,2.15,2.15,0,0,0,.83-.17l4-1.69,3.91,1.66a2.14,2.14,0,0,0,3-2.12l-.37-4.32,2.81-3.24A2.14,2.14,0,0,0,43.29,22l-4.22-1-2.23-3.7A2.12,2.12,0,0,0,35,16.27h0a2.12,2.12,0,0,0-1.83,1L30.93,21l-4.21,1a2.14,2.14,0,0,0-1.14,3.49Zm3.7-5.21a1.36,1.36,0,0,0,.86-.63l2-3.37,2,3.37a1.36,1.36,0,0,0,.86.63l3.83.89-2.57,3a1.37,1.37,0,0,0-.33,1l.34,3.92-3.62-1.53a1.36,1.36,0,0,0-1.07,0l-3.62,1.53.34-3.92a1.37,1.37,0,0,0-.33-1l-2.57-3Z" transform="translate(-9.02 .14)"/><path d="M23.25,15.76a1.36,1.36,0,0,0,1-.41l0,0a1.37,1.37,0,1,0-2-1.91l0,0a1.37,1.37,0,0,0,1,2.32Z" transform="translate(-9.02 .14)"/></g></svg>