<svg xmlns="http://www.w3.org/2000/svg" viewBox="0 0 16 16"><path d="M11.58,0H4.42A4.42,4.42,0,0,0,0,4.42v7.17A4.42,4.42,0,0,0,4.42,16h7.17A4.42,4.42,0,0,0,16,11.58V4.42A4.42,4.42,0,0,0,11.58,0Zm3,11.58a3,3,0,0,1-3,3H4.42a3,3,0,0,1-3-3V4.42a3,3,0,0,1,3-3h7.17a3,3,0,0,1,3,3v7.17Z" fill="#056cde"/><path d="M8,3.88A4.12,4.12,0,1,0,12.12,8,4.13,4.13,0,0,0,8,3.88ZM8,10.7A2.7,2.7,0,1,1,10.7,8,2.71,2.71,0,0,1,8,10.7Z" fill="#056cde"/><path d="M12.3,2.67A1,1,0,1,0,13,3,1,1,0,0,0,12.3,2.67Z" fill="#056cde"/></svg>