<svg xmlns="http://www.w3.org/2000/svg" viewBox="0 0 127 97"><path d="M29.61,0q12.73,0,21,8.06T59,29.13a47.28,47.28,0,0,1-1.56,12A137.38,137.38,0,0,1,50.64,59L34,97H3.12L15.32,54.61A26.49,26.49,0,0,1,3.9,44.73,30.69,30.69,0,0,1,0,29.13q0-13,8.31-21.06T29.61,0Zm68,0q12.73,0,21,8.06T127,29.13a47.27,47.27,0,0,1-1.56,12A137.4,137.4,0,0,1,118.69,59L102.07,97H71.16L83.37,54.61a26.49,26.49,0,0,1-11.43-9.88A30.69,30.69,0,0,1,68,29.13q0-13,8.31-21.06T97.65,0Z" style="isolation:isolate" fill="#d5e9ff" opacity=".4"/></svg>