<svg xmlns="http://www.w3.org/2000/svg" viewBox="0 0 17.35 14.1"><path d="M17.85,1.67a7.1,7.1,0,0,1-2,.56,3.57,3.57,0,0,0,1.57-2,7.13,7.13,0,0,1-2.26.86A3.56,3.56,0,0,0,9,4.37,10.11,10.11,0,0,1,1.71.65,3.56,3.56,0,0,0,2.81,5.4,3.53,3.53,0,0,1,1.2,5V5A3.56,3.56,0,0,0,4.05,8.49a3.57,3.57,0,0,1-1.61.06A3.56,3.56,0,0,0,5.77,11a7.14,7.14,0,0,1-4.42,1.52,7.17,7.17,0,0,1-.85,0A10.07,10.07,0,0,0,6,14.1,10.06,10.06,0,0,0,16.09,4q0-.23,0-.46A7.22,7.22,0,0,0,17.85,1.67Z" transform="translate(-.5)" fill="#ffce51"/></svg>