<svg xmlns="http://www.w3.org/2000/svg" xmlns:xlink="http://www.w3.org/1999/xlink" height="725" viewBox="0 0 209 725" width="209"><svg height="103.95" viewBox="0 0 201 104" width="200.34" x="4" y="4"><path d="M60.19,4.93l61.47,53.43a11,11,0,0,0,14.51-.07L196.41,4.93" transform="translate(-.5 -.5)" fill="none" stroke="#056cde" stroke-width="5"/><path d="M60.19,100.67l46.91-54.62" transform="translate(-.5 -.5)" fill="none" stroke="#056cde" stroke-width="5"/><path d="M196.41,101.31,149.5,46.69" transform="translate(-.5 -.5)" fill="none" stroke="#056cde" stroke-width="5"/><path d="M132.8,21H81.39" transform="translate(-.5 -.5)" fill="none" stroke="#056cde" stroke-linecap="round" stroke-linejoin="round" stroke-width="5"/><path d="M152.07,21h-6.43" transform="translate(-.5 -.5)" fill="none" stroke="#056cde" stroke-linecap="round" stroke-linejoin="round" stroke-width="5"/><path d="M22.28,35.13H15.85" transform="translate(-.5 -.5)" fill="none" stroke="#056cde" stroke-linecap="round" stroke-linejoin="round" stroke-width="5"/><path d="M58.26,35.13H35.13" transform="translate(-.5 -.5)" fill="none" stroke="#056cde" stroke-linecap="round" stroke-linejoin="round" stroke-width="5"/><path d="M39,64.69H15.85" transform="translate(-.5 -.5)" fill="none" stroke="#056cde" stroke-linecap="round" stroke-linejoin="round" stroke-width="5"/><path d="M58.26,50.55H3" transform="translate(-.5 -.5)" fill="none" stroke="#056cde" stroke-linecap="round" stroke-linejoin="round" stroke-width="5"/><path d="M119.3,35.13H96.81" transform="translate(-.5 -.5)" fill="none" stroke="#056cde" stroke-linecap="round" stroke-linejoin="round" stroke-width="5"/><rect x="57.76" y="2.5" width="140.08" height="98.95" rx="4" ry="4" fill="none" stroke="#056cde" stroke-width="5"/><path d="M179.7,82.68H141.15" transform="translate(-.5 -.5)" fill="none" stroke="#056cde" stroke-linecap="round" stroke-linejoin="round" stroke-width="5"/></svg><svg height="97" viewBox="0 0 127 97" width="127" x="4" y="112"><path d="M29.61,0q12.73,0,21,8.06T59,29.13a47.28,47.28,0,0,1-1.56,12A137.38,137.38,0,0,1,50.64,59L34,97H3.12L15.32,54.61A26.49,26.49,0,0,1,3.9,44.73,30.69,30.69,0,0,1,0,29.13q0-13,8.31-21.06T29.61,0Zm68,0q12.73,0,21,8.06T127,29.13a47.27,47.27,0,0,1-1.56,12A137.4,137.4,0,0,1,118.69,59L102.07,97H71.16L83.37,54.61a26.49,26.49,0,0,1-11.43-9.88A30.69,30.69,0,0,1,68,29.13q0-13,8.31-21.06T97.65,0Z" style="isolation:isolate" fill="#d5e9ff" opacity=".4"/></svg><svg height="70" viewBox="0 0 70 70" width="70" x="4" y="213"><path d="M50.81,53.63V24.84H19.19V54.19a15.81,15.81,0,0,0,31.61,0ZM30.48,42.9A4.52,4.52,0,1,1,35,47.42,4.52,4.52,0,0,1,30.48,42.9Zm3.39,6.67v4.05a6.2,6.2,0,0,1-2.26,4.79V48.76A6.71,6.71,0,0,0,33.87,49.57ZM21.45,27.1H33.87v9.13a6.78,6.78,0,0,0-5.54,5.54H21.45Zm0,20.32V44h2.26v2.26H26V44h2.36a6.72,6.72,0,0,0,1,2.61v13a6.08,6.08,0,0,1-3.39,0v-11H23.71v9.87a6.2,6.2,0,0,1-2.26-4.79ZM35,67.74A13.55,13.55,0,0,1,23.18,60.8a8.43,8.43,0,0,0,11.82-3,8.43,8.43,0,0,0,11.82,3A13.55,13.55,0,0,1,35,67.74ZM48.55,47.42v6.21a6.21,6.21,0,0,1-12.42,0V49.58A6.78,6.78,0,0,0,41.67,44h6.88Zm0-5.65H41.67a6.78,6.78,0,0,0-5.54-5.54V27.1H48.55Z" fill="#ffce51"/><path d="M38.39,42.9A3.39,3.39,0,1,0,35,46.29,3.39,3.39,0,0,0,38.39,42.9Zm-4.52,0A1.13,1.13,0,1,1,35,44,1.13,1.13,0,0,1,33.87,42.9Z" fill="#ffce51"/><path d="M39.52,51.94h2.26v5.65H44V51.94h2.26V49.68H44V47.42H41.77v2.26H39.52Z" fill="#ffce51"/><path d="M31.61,29.35h-7.9v6.77h7.9Zm-2.26,4.52H26V31.61h3.39Z" fill="#ffce51"/><path d="M42.9,38.39a4.52,4.52,0,1,0-4.52-4.52A4.52,4.52,0,0,0,42.9,38.39Zm0-6.77a2.26,2.26,0,1,1-2.26,2.26A2.26,2.26,0,0,1,42.9,31.61Z" fill="#ffce51"/><path d="M22.31,16.23l.27.18v6.17H47.42V16.41l.27-.18a7,7,0,0,0,3.06-4.94h2.31V9H50.66a7,7,0,0,0-.74-2L51.6,5.31,50,3.72l-1.5,1.5a7,7,0,0,0-1.57-1.08,8.32,8.32,0,0,0-1.77-.64V1.13H42.9V3.26a8.31,8.31,0,0,0-4,1.18l-1,.61a3.33,3.33,0,0,0,.46-1.67,3.39,3.39,0,0,0-6.77,0,3.34,3.34,0,0,0,.46,1.67l-1-.61a8.37,8.37,0,0,0-2.83-1.06V1.13H26V3.3a8.33,8.33,0,0,0-2.9.84l-.25.15-1.7-1.7-1.6,1.6L21,5.69A6.92,6.92,0,0,0,19.34,9H16.94v2.26h2.31A7,7,0,0,0,22.31,16.23ZM40.1,6.38a6,6,0,0,1,5.82-.22,4.74,4.74,0,0,1,1.35,7.47,5.63,5.63,0,0,0-6.87-4.29l-2,.5V7.9a3.46,3.46,0,0,0,0-.46ZM35,2.26a1.13,1.13,0,1,1-1.13,1.13A1.13,1.13,0,0,1,35,2.26ZM33.87,7.9a1.13,1.13,0,1,1,2.26,0v6.77a1.13,1.13,0,1,1-2.26,0Zm6.77,10.16V15.81H38.18a3.35,3.35,0,0,0,.21-1.13V12.17L41,11.53a3.45,3.45,0,0,1,1.64,0,3.38,3.38,0,0,1,2.57,3.29v1H42.9v2.26h2.26v2.26H24.84V18.06ZM24.84,15.81v-1a3.38,3.38,0,0,1,2.57-3.29,3.45,3.45,0,0,1,1.64,0l2.57.64v2.51a3.35,3.35,0,0,0,.21,1.13Zm-.76-9.65a6,6,0,0,1,5.82.22l1.76,1.06a3.46,3.46,0,0,0,0,.46V9.85l-2-.5a5.63,5.63,0,0,0-6.87,4.29,4.74,4.74,0,0,1,1.35-7.47Z" fill="#ffce51"/><path d="M67.74,63.23V58.71H65.48v-.53l1-.67a5.35,5.35,0,0,0,0-8.9l-1-.67V44.64l1-.67a5.35,5.35,0,0,0,0-8.9l-1-.67V29.15a3.36,3.36,0,0,0,1.38-5.44,3.35,3.35,0,0,0-1.47-5.47,5.63,5.63,0,0,0-11.1,0,3.35,3.35,0,0,0-1.47,5.47,3.36,3.36,0,0,0,1.38,5.44v2.33l-1.13-.57v4.54a4.49,4.49,0,0,0,1.13,3V45l-1.13-.57V49a4.49,4.49,0,0,0,1.13,3v6.74H51.94v4.52H49.68V70H70V63.23ZM66.61,53.06a3.08,3.08,0,0,1-1.38,2.57l-.51.34a10.76,10.76,0,0,0-7.47-4.74A2.26,2.26,0,0,1,55.32,49v-.89a16.88,16.88,0,0,0,7.08,1.57H64l1.22.82A3.08,3.08,0,0,1,66.61,53.06Zm-3.39,4.82v.83H56.45V53.35a4.26,4.26,0,0,0,.49.12A8.49,8.49,0,0,1,63.23,57.88ZM56.45,46.12V39.8a4.26,4.26,0,0,0,.49.12,8.49,8.49,0,0,1,6.28,4.41v3.09H62.4A14.58,14.58,0,0,1,56.45,46.12Zm10.16-6.6a3.08,3.08,0,0,1-1.38,2.57l-.51.34a10.76,10.76,0,0,0-7.47-4.74,2.26,2.26,0,0,1-1.93-2.23v-.89a16.88,16.88,0,0,0,7.08,1.57H64l1.22.82A3.08,3.08,0,0,1,66.61,39.52ZM56.45,32.57V29.35h6.77v4.52H62.4A14.58,14.58,0,0,1,56.45,32.57Zm3.39-16.76A3.38,3.38,0,0,1,63,18.06H56.66A3.38,3.38,0,0,1,59.84,15.81Zm-4.52,4.52h9a1.13,1.13,0,1,1,0,2.26h-9a1.13,1.13,0,1,1,0-2.26Zm0,4.52h9a1.13,1.13,0,1,1,0,2.26h-9a1.13,1.13,0,1,1,0-2.26Zm12.42,42.9H51.94V65.48h4.52V63.23H54.19V61H65.48v2.26H58.71v2.26h9Z" fill="#ffce51"/><path d="M18.06,58.71H15.81V52a4.49,4.49,0,0,0,1.13-3V44.46L15.81,45v-6.6a4.49,4.49,0,0,0,1.13-3V30.92l-1.13.56V29.15a3.36,3.36,0,0,0,1.38-5.44,3.35,3.35,0,0,0-1.47-5.47,5.63,5.63,0,0,0-11.1,0,3.35,3.35,0,0,0-1.47,5.47,3.36,3.36,0,0,0,1.38,5.44V34.4l-1,.67a5.35,5.35,0,0,0,0,8.9l1,.67v3.31l-1,.67a5.35,5.35,0,0,0,0,8.9l1,.67v.53H2.26v4.52H0V70H20.32V63.23H18.06Zm-7.9-42.9a3.38,3.38,0,0,1,3.18,2.26H7A3.38,3.38,0,0,1,10.16,15.81ZM5.65,20.32h9a1.13,1.13,0,1,1,0,2.26h-9a1.13,1.13,0,1,1,0-2.26Zm0,4.52h9a1.13,1.13,0,1,1,0,2.26h-9a1.13,1.13,0,0,1,0-2.26Zm7.9,4.52v3.22a14.58,14.58,0,0,1-6,1.3H6.77V29.35ZM3.39,39.52a3.08,3.08,0,0,1,1.38-2.57L6,36.13H7.6a16.89,16.89,0,0,0,7.08-1.57v.89a2.26,2.26,0,0,1-1.94,2.23,10.76,10.76,0,0,0-7.46,4.74l-.51-.34A3.08,3.08,0,0,1,3.39,39.52Zm10.16.29v6.31a14.58,14.58,0,0,1-6,1.3H6.77V44.33a8.49,8.49,0,0,1,6.29-4.41A4.46,4.46,0,0,0,13.55,39.8ZM3.39,53.06a3.08,3.08,0,0,1,1.38-2.57L6,49.68H7.6a16.89,16.89,0,0,0,7.08-1.57V49a2.26,2.26,0,0,1-1.94,2.23A10.76,10.76,0,0,0,5.27,56l-.51-.34A3.08,3.08,0,0,1,3.39,53.06Zm10.16.29v5.36H6.77v-.83a8.49,8.49,0,0,1,6.29-4.41A4.46,4.46,0,0,0,13.55,53.35ZM4.52,61H15.81v2.26H4.52Zm13.55,6.77H2.26V65.48H18.06Z" fill="#ffce51"/></svg><svg height="70" viewBox="0 0 63 70" width="62.89" x="4" y="287"><path d="M47.3,0a1.37,1.37,0,0,0-1.37,1.37V7.66a1.37,1.37,0,0,0,2.73,0V1.37A1.37,1.37,0,0,0,47.3,0Z" transform="translate(-3.55)" fill="#ffce51"/><path d="M15.86,42.66A1.37,1.37,0,1,0,17.23,44,1.37,1.37,0,0,0,15.86,42.66Z" transform="translate(-3.55)" fill="#ffce51"/><path d="M66.45,39.92A5.47,5.47,0,0,0,61,34.45H50.77a34.33,34.33,0,0,0,2.1-13.05,15.56,15.56,0,0,0-.1-1.57A5.47,5.47,0,0,0,41.84,20v1.37c0,8.65-11.1,13.51-19.48,15.59a4.11,4.11,0,0,0-3.76-2.46H4.92a1.37,1.37,0,0,0-1.37,1.37V68.63A1.37,1.37,0,0,0,4.92,70H18.59a4.11,4.11,0,0,0,3.75-2.43l1.93.5A44.34,44.34,0,0,0,38.07,70h14.7a5.47,5.47,0,0,0,4.54-8.51,5.48,5.48,0,0,0,2.74-8.21,5.47,5.47,0,0,0,2.72-8.2A5.47,5.47,0,0,0,66.45,39.92ZM20,65.9a1.37,1.37,0,0,1-1.37,1.37H6.29V37.19h12.3A1.37,1.37,0,0,1,20,38.55ZM61,42.66H54.14a1.37,1.37,0,1,0,0,2.73h4.1a2.73,2.73,0,1,1,0,5.47H51.41a1.37,1.37,0,0,0,0,2.73h4.1a2.73,2.73,0,1,1,0,5.47H48.67a1.37,1.37,0,1,0,0,2.73h4.1a2.73,2.73,0,1,1,0,5.47H38.07A41.71,41.71,0,0,1,25,65.42l-2.27-.59V39.65c9.89-2.36,21.88-8.11,21.88-18.32V20A2.73,2.73,0,0,1,50,20h0c0,.59.74,7.89-2.23,14.49H43.2a1.37,1.37,0,0,0,0,2.73H61a2.73,2.73,0,0,1,0,5.47Z" transform="translate(-3.55)" fill="#ffce51"/><path d="M15.86,48.13a1.37,1.37,0,0,0-1.37,1.37V60.43a1.37,1.37,0,1,0,2.73,0V49.49A1.37,1.37,0,0,0,15.86,48.13Z" transform="translate(-3.55)" fill="#ffce51"/><path d="M36.37,17.23H30.9a1.37,1.37,0,1,0,0,2.73h5.47a1.37,1.37,0,1,0,0-2.73Z" transform="translate(-3.55)" fill="#ffce51"/><path d="M63.71,17.23H58.24a1.37,1.37,0,1,0,0,2.73h5.47a1.37,1.37,0,1,0,0-2.73Z" transform="translate(-3.55)" fill="#ffce51"/><path d="M59.87,6a1.37,1.37,0,0,0-1.93,0L54.07,9.89A1.37,1.37,0,1,0,56,11.83L59.87,8A1.37,1.37,0,0,0,59.87,6Z" transform="translate(-3.55)" fill="#ffce51"/><path d="M40.54,9.89,36.67,6A1.37,1.37,0,0,0,34.74,8l3.87,3.87a1.37,1.37,0,1,0,1.93-1.93Z" transform="translate(-3.55)" fill="#ffce51"/></svg><svg height="70" viewBox="0 0 58 70" width="57.42" x="4" y="361"><path d="M13.13,28.16a1.37,1.37,0,1,0,1.37,1.37A1.37,1.37,0,0,0,13.13,28.16Z" transform="translate(-6.29)" fill="#ffce51"/><path d="M62.34,11.76A34.55,34.55,0,0,1,36.81,1.18a7,7,0,0,0-1.09-1,1.37,1.37,0,0,0-1.44,0,4.59,4.59,0,0,0-.73.64,39,39,0,0,1-6.78,5.39A35.55,35.55,0,0,1,7.66,11.76a1.37,1.37,0,0,0-1.37,1.37V31.06a39.46,39.46,0,0,0,7.86,23.72C19.72,62.27,27,67.65,34.61,69.94a1.37,1.37,0,0,0,.79,0C43,67.65,50.28,62.27,55.86,54.78a39.46,39.46,0,0,0,7.86-23.72V13.13A1.37,1.37,0,0,0,62.34,11.76ZM61,31.06a36.74,36.74,0,0,1-7.31,22.09C48.53,60,41.92,65,35,67.2,28.08,65,21.47,60,16.34,53.15A36.74,36.74,0,0,1,9,31.06V14.47A38.23,38.23,0,0,0,28.22,8.55,41.29,41.29,0,0,0,35,3.25,37,37,0,0,0,61,14.47Z" transform="translate(-6.29)" fill="#ffce51"/><path d="M57,16.94A41.37,41.37,0,0,1,35.81,7.89a1.37,1.37,0,0,0-1.68,0,44.39,44.39,0,0,1-21.17,9,1.37,1.37,0,0,0-1.2,1.36v5.79a1.37,1.37,0,1,0,2.73,0v-4.6a46.33,46.33,0,0,0,20.45-8.78A44,44,0,0,0,55.51,19.5V31.06a31.3,31.3,0,0,1-6.24,18.82A32,32,0,0,1,35,61,32,32,0,0,1,20.73,49.88a31.47,31.47,0,0,1-6-15.05,1.37,1.37,0,0,0-2.72.32,34.21,34.21,0,0,0,6.54,16.36,34.58,34.58,0,0,0,16,12.24,1.37,1.37,0,0,0,.91,0,34.58,34.58,0,0,0,16-12.25,34,34,0,0,0,6.78-20.45V18.3A1.37,1.37,0,0,0,57,16.94Z" transform="translate(-6.29)" fill="#ffce51"/><path d="M48.57,30a1.37,1.37,0,0,0-1.1-.93l-7.81-1.13-3.49-7.07a1.37,1.37,0,0,0-2.45,0l-3.49,7.07L22.42,29a1.37,1.37,0,0,0-.76,2.33l5.65,5.51L26,44.65a1.37,1.37,0,0,0,2,1.44l7-3.67,7,3.67a1.37,1.37,0,0,0,2-1.44l-1.33-7.77,5.65-5.51A1.37,1.37,0,0,0,48.57,30Zm-8.42,5.45a1.37,1.37,0,0,0-.39,1.21l1,5.75-5.16-2.72a1.37,1.37,0,0,0-1.27,0l-5.17,2.72,1-5.75a1.37,1.37,0,0,0-.39-1.21l-4.18-4.07,5.78-.84a1.37,1.37,0,0,0,1-.75l2.58-5.23,2.58,5.23a1.37,1.37,0,0,0,1,.75l5.78.84Z" transform="translate(-6.29)" fill="#ffce51"/></svg><svg height="70" viewBox="0 0 52 70" width="51.95" x="4" y="435"><defs><clipPath id="a" transform="translate(-9.02 .14)"><path fill="none" d="M0 0H70V70H0z"/></clipPath></defs><g clip-path="url(#a)" fill="#ffce51"><path d="M35,8.07a17.67,17.67,0,0,0-7.15,1.5,1.37,1.37,0,1,0,1.1,2.5,15,15,0,1,1-7,6.25A1.37,1.37,0,0,0,19.61,17,17.77,17.77,0,1,0,35,8.07Z" transform="translate(-9.02 .14)"/><path d="M60.62,24.92l-4.33-4.79,1.36-6.31a1.37,1.37,0,0,0-.92-1.59l-6.14-2-2-6.14A1.37,1.37,0,0,0,47,3.19L40.7,4.55,35.92.22a1.37,1.37,0,0,0-1.83,0L29.29,4.55,23,3.19a1.37,1.37,0,0,0-1.59.92l-2,6.14-6.14,2a1.37,1.37,0,0,0-.92,1.59l1.36,6.31L9.38,24.92a1.37,1.37,0,0,0,0,1.83l4.33,4.79-1.36,6.31a1.37,1.37,0,0,0,.92,1.59l6.14,2,.05.16L13.26,64.75a1.37,1.37,0,0,0,2,1.51l6.92-4.34L26,69.14a1.37,1.37,0,0,0,1.21.73h.15a1.37,1.37,0,0,0,1.17-1l4.82-18,.68.62a1.37,1.37,0,0,0,1.83,0l.68-.62,4.82,18a1.37,1.37,0,0,0,1.17,1h.15a1.37,1.37,0,0,0,1.21-.73l3.82-7.21,6.92,4.34a1.37,1.37,0,0,0,2-1.51L55,58.31a1.37,1.37,0,0,0-2.64.71l.83,3.08L48,58.82a1.37,1.37,0,0,0-1.93.52l-2.88,5.44-4.29-16,1.83-1.65L47,48.49a1.37,1.37,0,0,0,1.59-.92L49,46.38l.94,3.53a1.37,1.37,0,0,0,1.32,1,1.38,1.38,0,0,0,.36,0,1.37,1.37,0,0,0,1-1.67l-2-7.61.05-.16,6.15-2a1.37,1.37,0,0,0,.92-1.59l-1.36-6.31,4.33-4.79A1.37,1.37,0,0,0,60.62,24.92ZM26.84,64.78,24,59.34A1.37,1.37,0,0,0,22,58.82L16.8,62.09,21,46.38l.38,1.19a1.37,1.37,0,0,0,1.59.92l6.31-1.36,1.83,1.65Zm27-34.55a1.37,1.37,0,0,0-.32,1.2l1.24,5.79L49.08,39a1.37,1.37,0,0,0-.88.88l-1.82,5.63-5.79-1.24a1.36,1.36,0,0,0-1.2.32l-4.39,4-4.39-4a1.37,1.37,0,0,0-.92-.35,1.34,1.34,0,0,0-.29,0l-5.79,1.24L21.8,39.92a1.37,1.37,0,0,0-.88-.88l-5.63-1.82,1.24-5.79a1.37,1.37,0,0,0-.32-1.2l-4-4.39,4-4.39a1.37,1.37,0,0,0,.32-1.2l-1.24-5.79,5.63-1.82a1.37,1.37,0,0,0,.88-.88l1.82-5.63L29.4,7.37A1.37,1.37,0,0,0,30.61,7l4.39-4,4.39,4a1.37,1.37,0,0,0,1.2.32l5.79-1.24,1.82,5.63a1.37,1.37,0,0,0,.88.88l5.63,1.82-1.24,5.79a1.37,1.37,0,0,0,.32,1.2l4,4.39Z" transform="translate(-9.02 .14)"/><path d="M51.94,52a1.37,1.37,0,1,0,1.66,1h0A1.37,1.37,0,0,0,51.94,52Z" transform="translate(-9.02 .14)"/><path d="M28.41,28.76,28,33.09a2.15,2.15,0,0,0,2.13,2.32,2.15,2.15,0,0,0,.83-.17l4-1.69,3.91,1.66a2.14,2.14,0,0,0,3-2.12l-.37-4.32,2.81-3.24A2.14,2.14,0,0,0,43.29,22l-4.22-1-2.23-3.7A2.12,2.12,0,0,0,35,16.27h0a2.12,2.12,0,0,0-1.83,1L30.93,21l-4.21,1a2.14,2.14,0,0,0-1.14,3.49Zm3.7-5.21a1.36,1.36,0,0,0,.86-.63l2-3.37,2,3.37a1.36,1.36,0,0,0,.86.63l3.83.89-2.57,3a1.37,1.37,0,0,0-.33,1l.34,3.92-3.62-1.53a1.36,1.36,0,0,0-1.07,0l-3.62,1.53.34-3.92a1.37,1.37,0,0,0-.33-1l-2.57-3Z" transform="translate(-9.02 .14)"/><path d="M23.25,15.76a1.36,1.36,0,0,0,1-.41l0,0a1.37,1.37,0,1,0-2-1.91l0,0a1.37,1.37,0,0,0,1,2.32Z" transform="translate(-9.02 .14)"/></g></svg><svg height="17.41" viewBox="0 0 28 18" width="28" x="4" y="509"><path d="M27,9l.71.71a1,1,0,0,0,0-1.41ZM1,8a1,1,0,0,0,0,2Zm18.71,9.71,8-8L26.29,8.29l-8,8Zm8-9.41-8-8L18.29,1.71l8,8ZM27,8H1v2H27Z" transform="translate(0 -.29)" fill="#056cde"/></svg><svg height="17.41" viewBox="0 0 28 18" width="28" x="4" y="531"><path d="M1,9,.29,8.29a1,1,0,0,0,0,1.41Zm26,1a1,1,0,0,0,0-2ZM8.29.29l-8,8L1.71,9.71l8-8Zm-8,9.41,8,8,1.41-1.41-8-8ZM1,10H27V8H1Z" transform="translate(0 -.29)" fill="#056cde"/></svg><svg height="19.43" viewBox="0 0 9 20" width="8.96" x="4" y="553"><path d="M8.64,10.48H6v9.74H2V10.48H0V7.05H2V4.84A3.78,3.78,0,0,1,6,.78H9V4.11H6.83A.82.82,0,0,0,6,5v2H9Z" transform="translate(-.04 -.78)" fill="#056cde"/></svg><svg height="19.43" viewBox="0 0 9 20" width="8.96" x="4" y="577"><path d="M8.64,10.48H6v9.74H2V10.48H0V7.05H2V4.84A3.78,3.78,0,0,1,6,.78H9V4.11H6.83A.82.82,0,0,0,6,5v2H9Z" transform="translate(-.04 -.78)" fill="#ffce51"/></svg><svg height="18.5" viewBox="0 0 15 19" width="14.39" x="4" y="601"><path d="M9.1,13.94a5,5,0,0,1-2.48-1.18c-.49,2.55-1.08,5-2.84,6.26-.54-3.85.8-6.74,1.42-9.81-1.06-1.78.13-5.38,2.36-4.49,2.75,1.09-2.38,6.63,1.06,7.33,3.6.72,5.07-6.24,2.84-8.51C8.23.27,2.08,3.47,2.83,8.15,3,9.3,4.2,9.65,3.31,11.23,1.24,10.77.63,9.14.71,7A6.94,6.94,0,0,1,7,.59C10.85.16,14.5,2,15,5.67,15.57,9.8,13.25,14.26,9.1,13.94Z" transform="translate(-.7 -.53)" fill="#ffce51"/></svg><svg height="18.5" viewBox="0 0 15 19" width="14.39" x="4" y="624"><path d="M9.1,13.94a5,5,0,0,1-2.48-1.18c-.49,2.55-1.08,5-2.84,6.26-.54-3.85.8-6.74,1.42-9.81-1.06-1.78.13-5.38,2.36-4.49,2.75,1.09-2.38,6.63,1.06,7.33,3.6.72,5.07-6.24,2.84-8.51C8.23.27,2.08,3.47,2.83,8.15,3,9.3,4.2,9.65,3.31,11.23,1.24,10.77.63,9.14.71,7A6.94,6.94,0,0,1,7,.59C10.85.16,14.5,2,15,5.67,15.57,9.8,13.25,14.26,9.1,13.94Z" transform="translate(-.7 -.53)" fill="#056cde"/></svg><svg height="14.1" viewBox="0 0 18 15" width="17.35" x="4" y="647"><path d="M17.85,1.67a7.1,7.1,0,0,1-2,.56,3.57,3.57,0,0,0,1.57-2,7.13,7.13,0,0,1-2.26.86A3.56,3.56,0,0,0,9,4.37,10.11,10.11,0,0,1,1.71.65,3.56,3.56,0,0,0,2.81,5.4,3.53,3.53,0,0,1,1.2,5V5A3.56,3.56,0,0,0,4.05,8.49a3.57,3.57,0,0,1-1.61.06A3.56,3.56,0,0,0,5.77,11a7.14,7.14,0,0,1-4.42,1.52,7.17,7.17,0,0,1-.85,0A10.07,10.07,0,0,0,6,14.1,10.06,10.06,0,0,0,16.09,4q0-.23,0-.46A7.22,7.22,0,0,0,17.85,1.67Z" transform="translate(-.5)" fill="#ffce51"/></svg><svg height="14.1" viewBox="0 0 18 15" width="17.35" x="4" y="666"><path d="M17.85,1.67a7.1,7.1,0,0,1-2,.56,3.57,3.57,0,0,0,1.57-2,7.13,7.13,0,0,1-2.26.86A3.56,3.56,0,0,0,9,4.37,10.11,10.11,0,0,1,1.71.65,3.56,3.56,0,0,0,2.81,5.4,3.53,3.53,0,0,1,1.2,5V5A3.56,3.56,0,0,0,4.05,8.49a3.57,3.57,0,0,1-1.61.06A3.56,3.56,0,0,0,5.77,11a7.14,7.14,0,0,1-4.42,1.52,7.17,7.17,0,0,1-.85,0A10.07,10.07,0,0,0,6,14.1,10.06,10.06,0,0,0,16.09,4q0-.23,0-.46A7.22,7.22,0,0,0,17.85,1.67Z" transform="translate(-.5)" fill="#056cde"/></svg><svg height="16" viewBox="0 0 16 16" width="16" x="4" y="685"><path d="M11.58,0H4.42A4.42,4.42,0,0,0,0,4.42v7.17A4.42,4.42,0,0,0,4.42,16h7.17A4.42,4.42,0,0,0,16,11.58V4.42A4.42,4.42,0,0,0,11.58,0Zm3,11.58a3,3,0,0,1-3,3H4.42a3,3,0,0,1-3-3V4.42a3,3,0,0,1,3-3h7.17a3,3,0,0,1,3,3v7.17Z" fill="#056cde"/><path d="M8,3.88A4.12,4.12,0,1,0,12.12,8,4.13,4.13,0,0,0,8,3.88ZM8,10.7A2.7,2.7,0,1,1,10.7,8,2.71,2.71,0,0,1,8,10.7Z" fill="#056cde"/><path d="M12.3,2.67A1,1,0,1,0,13,3,1,1,0,0,0,12.3,2.67Z" fill="#056cde"/></svg><svg height="16" viewBox="0 0 16 16" width="16" x="4" y="705"><path d="M11.58,0H4.42A4.42,4.42,0,0,0,0,4.42v7.17A4.42,4.42,0,0,0,4.42,16h7.17A4.42,4.42,0,0,0,16,11.58V4.42A4.42,4.42,0,0,0,11.58,0Zm3,11.58a3,3,0,0,1-3,3H4.42a3,3,0,0,1-3-3V4.42a3,3,0,0,1,3-3h7.17a3,3,0,0,1,3,3v7.17Z" fill="#ffce51"/><path d="M8,3.88A4.12,4.12,0,1,0,12.12,8,4.13,4.13,0,0,0,8,3.88ZM8,10.7A2.7,2.7,0,1,1,10.7,8,2.71,2.71,0,0,1,8,10.7Z" fill="#ffce51"/><path d="M12.3,2.67A1,1,0,1,0,13,3,1,1,0,0,0,12.3,2.67Z" fill="#ffce51"/></svg></svg>