<svg xmlns="http://www.w3.org/2000/svg" viewBox="0 0 57.42 70"><title>insurance</title><path d="M13.13,28.16a1.37,1.37,0,1,0,1.37,1.37A1.37,1.37,0,0,0,13.13,28.16Z" transform="translate(-6.29 0)" style="fill:#ffce51"/><path d="M62.34,11.76A34.55,34.55,0,0,1,36.81,1.18a7,7,0,0,0-1.09-1,1.37,1.37,0,0,0-1.44,0,4.59,4.59,0,0,0-.73.64,39,39,0,0,1-6.78,5.39A35.55,35.55,0,0,1,7.66,11.76a1.37,1.37,0,0,0-1.37,1.37V31.06a39.46,39.46,0,0,0,7.86,23.72C19.72,62.27,27,67.65,34.61,69.94a1.37,1.37,0,0,0,.79,0C43,67.65,50.28,62.27,55.86,54.78a39.46,39.46,0,0,0,7.86-23.72V13.13A1.37,1.37,0,0,0,62.34,11.76ZM61,31.06a36.74,36.74,0,0,1-7.31,22.09C48.53,60,41.92,65,35,67.2,28.08,65,21.47,60,16.34,53.15A36.74,36.74,0,0,1,9,31.06V14.47A38.23,38.23,0,0,0,28.22,8.55,41.29,41.29,0,0,0,35,3.25,37,37,0,0,0,61,14.47Z" transform="translate(-6.29 0)" style="fill:#ffce51"/><path d="M57,16.94A41.37,41.37,0,0,1,35.81,7.89a1.37,1.37,0,0,0-1.68,0,44.39,44.39,0,0,1-21.17,9,1.37,1.37,0,0,0-1.2,1.36v5.79a1.37,1.37,0,1,0,2.73,0v-4.6a46.33,46.33,0,0,0,20.45-8.78A44,44,0,0,0,55.51,19.5V31.06a31.3,31.3,0,0,1-6.24,18.82A32,32,0,0,1,35,61,32,32,0,0,1,20.73,49.88a31.47,31.47,0,0,1-6-15.05,1.37,1.37,0,0,0-2.72.32,34.21,34.21,0,0,0,6.54,16.36,34.58,34.58,0,0,0,16,12.24,1.37,1.37,0,0,0,.91,0,34.58,34.58,0,0,0,16-12.25,34,34,0,0,0,6.78-20.45V18.3A1.37,1.37,0,0,0,57,16.94Z" transform="translate(-6.29 0)" style="fill:#ffce51"/><path d="M48.57,30a1.37,1.37,0,0,0-1.1-.93l-7.81-1.13-3.49-7.07a1.37,1.37,0,0,0-2.45,0l-3.49,7.07L22.42,29a1.37,1.37,0,0,0-.76,2.33l5.65,5.51L26,44.65a1.37,1.37,0,0,0,2,1.44l7-3.67,7,3.67a1.37,1.37,0,0,0,2-1.44l-1.33-7.77,5.65-5.51A1.37,1.37,0,0,0,48.57,30Zm-8.42,5.45a1.37,1.37,0,0,0-.39,1.21l1,5.75-5.16-2.72a1.37,1.37,0,0,0-1.27,0l-5.17,2.72,1-5.75a1.37,1.37,0,0,0-.39-1.21l-4.18-4.07,5.78-.84a1.37,1.37,0,0,0,1-.75l2.58-5.23,2.58,5.23a1.37,1.37,0,0,0,1,.75l5.78.84Z" transform="translate(-6.29 0)" style="fill:#ffce51"/></svg>