<svg xmlns="http://www.w3.org/2000/svg" viewBox="0 0 200.34 103.95"><title>mail</title><path d="M60.19,4.93l61.47,53.43a11,11,0,0,0,14.51-.07L196.41,4.93" transform="translate(-0.5 -0.5)" style="fill:none;stroke:#056cde;stroke-width:5px"/><path d="M60.19,100.67l46.91-54.62" transform="translate(-0.5 -0.5)" style="fill:none;stroke:#056cde;stroke-width:5px"/><path d="M196.41,101.31,149.5,46.69" transform="translate(-0.5 -0.5)" style="fill:none;stroke:#056cde;stroke-width:5px"/><path d="M132.8,21H81.39" transform="translate(-0.5 -0.5)" style="fill:none;stroke:#056cde;stroke-linecap:round;stroke-linejoin:round;stroke-width:5px"/><path d="M152.07,21h-6.43" transform="translate(-0.5 -0.5)" style="fill:none;stroke:#056cde;stroke-linecap:round;stroke-linejoin:round;stroke-width:5px"/><path d="M22.28,35.13H15.85" transform="translate(-0.5 -0.5)" style="fill:none;stroke:#056cde;stroke-linecap:round;stroke-linejoin:round;stroke-width:5px"/><path d="M58.26,35.13H35.13" transform="translate(-0.5 -0.5)" style="fill:none;stroke:#056cde;stroke-linecap:round;stroke-linejoin:round;stroke-width:5px"/><path d="M39,64.69H15.85" transform="translate(-0.5 -0.5)" style="fill:none;stroke:#056cde;stroke-linecap:round;stroke-linejoin:round;stroke-width:5px"/><path d="M58.26,50.55H3" transform="translate(-0.5 -0.5)" style="fill:none;stroke:#056cde;stroke-linecap:round;stroke-linejoin:round;stroke-width:5px"/><path d="M119.3,35.13H96.81" transform="translate(-0.5 -0.5)" style="fill:none;stroke:#056cde;stroke-linecap:round;stroke-linejoin:round;stroke-width:5px"/><rect x="57.76" y="2.5" width="140.08" height="98.95" rx="4" ry="4" style="fill:none;stroke:#056cde;stroke-width:5px"/><path d="M179.7,82.68H141.15" transform="translate(-0.5 -0.5)" style="fill:none;stroke:#056cde;stroke-linecap:round;stroke-linejoin:round;stroke-width:5px"/></svg>