<svg xmlns="http://www.w3.org/2000/svg" viewBox="0 0 62.89 70"><title>practice</title><path d="M47.3,0a1.37,1.37,0,0,0-1.37,1.37V7.66a1.37,1.37,0,0,0,2.73,0V1.37A1.37,1.37,0,0,0,47.3,0Z" transform="translate(-3.55)" style="fill:#ffce51"/><path d="M15.86,42.66A1.37,1.37,0,1,0,17.23,44,1.37,1.37,0,0,0,15.86,42.66Z" transform="translate(-3.55)" style="fill:#ffce51"/><path d="M66.45,39.92A5.47,5.47,0,0,0,61,34.45H50.77a34.33,34.33,0,0,0,2.1-13.05,15.56,15.56,0,0,0-.1-1.57A5.47,5.47,0,0,0,41.84,20v1.37c0,8.65-11.1,13.51-19.48,15.59a4.11,4.11,0,0,0-3.76-2.46H4.92a1.37,1.37,0,0,0-1.37,1.37V68.63A1.37,1.37,0,0,0,4.92,70H18.59a4.11,4.11,0,0,0,3.75-2.43l1.93.5A44.34,44.34,0,0,0,38.07,70h14.7a5.47,5.47,0,0,0,4.54-8.51,5.48,5.48,0,0,0,2.74-8.21,5.47,5.47,0,0,0,2.72-8.2A5.47,5.47,0,0,0,66.45,39.92ZM20,65.9a1.37,1.37,0,0,1-1.37,1.37H6.29V37.19h12.3A1.37,1.37,0,0,1,20,38.55ZM61,42.66H54.14a1.37,1.37,0,1,0,0,2.73h4.1a2.73,2.73,0,1,1,0,5.47H51.41a1.37,1.37,0,0,0,0,2.73h4.1a2.73,2.73,0,1,1,0,5.47H48.67a1.37,1.37,0,1,0,0,2.73h4.1a2.73,2.73,0,1,1,0,5.47H38.07A41.71,41.71,0,0,1,25,65.42l-2.27-.59V39.65c9.89-2.36,21.88-8.11,21.88-18.32V20A2.73,2.73,0,0,1,50,20h0c0,.59.74,7.89-2.23,14.49H43.2a1.37,1.37,0,0,0,0,2.73H61a2.73,2.73,0,0,1,0,5.47Z" transform="translate(-3.55)" style="fill:#ffce51"/><path d="M15.86,48.13a1.37,1.37,0,0,0-1.37,1.37V60.43a1.37,1.37,0,1,0,2.73,0V49.49A1.37,1.37,0,0,0,15.86,48.13Z" transform="translate(-3.55)" style="fill:#ffce51"/><path d="M36.37,17.23H30.9a1.37,1.37,0,1,0,0,2.73h5.47a1.37,1.37,0,1,0,0-2.73Z" transform="translate(-3.55)" style="fill:#ffce51"/><path d="M63.71,17.23H58.24a1.37,1.37,0,1,0,0,2.73h5.47a1.37,1.37,0,1,0,0-2.73Z" transform="translate(-3.55)" style="fill:#ffce51"/><path d="M59.87,6a1.37,1.37,0,0,0-1.93,0L54.07,9.89A1.37,1.37,0,1,0,56,11.83L59.87,8A1.37,1.37,0,0,0,59.87,6Z" transform="translate(-3.55)" style="fill:#ffce51"/><path d="M40.54,9.89,36.67,6A1.37,1.37,0,0,0,34.74,8l3.87,3.87a1.37,1.37,0,1,0,1.93-1.93Z" transform="translate(-3.55)" style="fill:#ffce51"/></svg>