<svg xmlns="http://www.w3.org/2000/svg" viewBox="0 0 70 70"><title>spanich</title><path d="M50.81,53.63V24.84H19.19V54.19a15.81,15.81,0,0,0,31.61,0ZM30.48,42.9A4.52,4.52,0,1,1,35,47.42,4.52,4.52,0,0,1,30.48,42.9Zm3.39,6.67v4.05a6.2,6.2,0,0,1-2.26,4.79V48.76A6.71,6.71,0,0,0,33.87,49.57ZM21.45,27.1H33.87v9.13a6.78,6.78,0,0,0-5.54,5.54H21.45Zm0,20.32V44h2.26v2.26H26V44h2.36a6.72,6.72,0,0,0,1,2.61v13a6.08,6.08,0,0,1-3.39,0v-11H23.71v9.87a6.2,6.2,0,0,1-2.26-4.79ZM35,67.74A13.55,13.55,0,0,1,23.18,60.8a8.43,8.43,0,0,0,11.82-3,8.43,8.43,0,0,0,11.82,3A13.55,13.55,0,0,1,35,67.74ZM48.55,47.42v6.21a6.21,6.21,0,0,1-12.42,0V49.58A6.78,6.78,0,0,0,41.67,44h6.88Zm0-5.65H41.67a6.78,6.78,0,0,0-5.54-5.54V27.1H48.55Z" style="fill:#ffce51"/><path d="M38.39,42.9A3.39,3.39,0,1,0,35,46.29,3.39,3.39,0,0,0,38.39,42.9Zm-4.52,0A1.13,1.13,0,1,1,35,44,1.13,1.13,0,0,1,33.87,42.9Z" style="fill:#ffce51"/><path d="M39.52,51.94h2.26v5.65H44V51.94h2.26V49.68H44V47.42H41.77v2.26H39.52Z" style="fill:#ffce51"/><path d="M31.61,29.35h-7.9v6.77h7.9Zm-2.26,4.52H26V31.61h3.39Z" style="fill:#ffce51"/><path d="M42.9,38.39a4.52,4.52,0,1,0-4.52-4.52A4.52,4.52,0,0,0,42.9,38.39Zm0-6.77a2.26,2.26,0,1,1-2.26,2.26A2.26,2.26,0,0,1,42.9,31.61Z" style="fill:#ffce51"/><path d="M22.31,16.23l.27.18v6.17H47.42V16.41l.27-.18a7,7,0,0,0,3.06-4.94h2.31V9H50.66a7,7,0,0,0-.74-2L51.6,5.31,50,3.72l-1.5,1.5a7,7,0,0,0-1.57-1.08,8.32,8.32,0,0,0-1.77-.64V1.13H42.9V3.26a8.31,8.31,0,0,0-4,1.18l-1,.61a3.33,3.33,0,0,0,.46-1.67,3.39,3.39,0,0,0-6.77,0,3.34,3.34,0,0,0,.46,1.67l-1-.61a8.37,8.37,0,0,0-2.83-1.06V1.13H26V3.3a8.33,8.33,0,0,0-2.9.84l-.25.15-1.7-1.7-1.6,1.6L21,5.69A6.92,6.92,0,0,0,19.34,9H16.94v2.26h2.31A7,7,0,0,0,22.31,16.23ZM40.1,6.38a6,6,0,0,1,5.82-.22,4.74,4.74,0,0,1,1.35,7.47,5.63,5.63,0,0,0-6.87-4.29l-2,.5V7.9a3.46,3.46,0,0,0,0-.46ZM35,2.26a1.13,1.13,0,1,1-1.13,1.13A1.13,1.13,0,0,1,35,2.26ZM33.87,7.9a1.13,1.13,0,1,1,2.26,0v6.77a1.13,1.13,0,1,1-2.26,0Zm6.77,10.16V15.81H38.18a3.35,3.35,0,0,0,.21-1.13V12.17L41,11.53a3.45,3.45,0,0,1,1.64,0,3.38,3.38,0,0,1,2.57,3.29v1H42.9v2.26h2.26v2.26H24.84V18.06ZM24.84,15.81v-1a3.38,3.38,0,0,1,2.57-3.29,3.45,3.45,0,0,1,1.64,0l2.57.64v2.51a3.35,3.35,0,0,0,.21,1.13Zm-.76-9.65a6,6,0,0,1,5.82.22l1.76,1.06a3.46,3.46,0,0,0,0,.46V9.85l-2-.5a5.63,5.63,0,0,0-6.87,4.29,4.74,4.74,0,0,1,1.35-7.47Z" style="fill:#ffce51"/><path d="M67.74,63.23V58.71H65.48v-.53l1-.67a5.35,5.35,0,0,0,0-8.9l-1-.67V44.64l1-.67a5.35,5.35,0,0,0,0-8.9l-1-.67V29.15a3.36,3.36,0,0,0,1.38-5.44,3.35,3.35,0,0,0-1.47-5.47,5.63,5.63,0,0,0-11.1,0,3.35,3.35,0,0,0-1.47,5.47,3.36,3.36,0,0,0,1.38,5.44v2.33l-1.13-.57v4.54a4.49,4.49,0,0,0,1.13,3V45l-1.13-.57V49a4.49,4.49,0,0,0,1.13,3v6.74H51.94v4.52H49.68V70H70V63.23ZM66.61,53.06a3.08,3.08,0,0,1-1.38,2.57l-.51.34a10.76,10.76,0,0,0-7.47-4.74A2.26,2.26,0,0,1,55.32,49v-.89a16.88,16.88,0,0,0,7.08,1.57H64l1.22.82A3.08,3.08,0,0,1,66.61,53.06Zm-3.39,4.82v.83H56.45V53.35a4.26,4.26,0,0,0,.49.12A8.49,8.49,0,0,1,63.23,57.88ZM56.45,46.12V39.8a4.26,4.26,0,0,0,.49.12,8.49,8.49,0,0,1,6.28,4.41v3.09H62.4A14.58,14.58,0,0,1,56.45,46.12Zm10.16-6.6a3.08,3.08,0,0,1-1.38,2.57l-.51.34a10.76,10.76,0,0,0-7.47-4.74,2.26,2.26,0,0,1-1.93-2.23v-.89a16.88,16.88,0,0,0,7.08,1.57H64l1.22.82A3.08,3.08,0,0,1,66.61,39.52ZM56.45,32.57V29.35h6.77v4.52H62.4A14.58,14.58,0,0,1,56.45,32.57Zm3.39-16.76A3.38,3.38,0,0,1,63,18.06H56.66A3.38,3.38,0,0,1,59.84,15.81Zm-4.52,4.52h9a1.13,1.13,0,1,1,0,2.26h-9a1.13,1.13,0,1,1,0-2.26Zm0,4.52h9a1.13,1.13,0,1,1,0,2.26h-9a1.13,1.13,0,1,1,0-2.26Zm12.42,42.9H51.94V65.48h4.52V63.23H54.19V61H65.48v2.26H58.71v2.26h9Z" style="fill:#ffce51"/><path d="M18.06,58.71H15.81V52a4.49,4.49,0,0,0,1.13-3V44.46L15.81,45v-6.6a4.49,4.49,0,0,0,1.13-3V30.92l-1.13.56V29.15a3.36,3.36,0,0,0,1.38-5.44,3.35,3.35,0,0,0-1.47-5.47,5.63,5.63,0,0,0-11.1,0,3.35,3.35,0,0,0-1.47,5.47,3.36,3.36,0,0,0,1.38,5.44V34.4l-1,.67a5.35,5.35,0,0,0,0,8.9l1,.67v3.31l-1,.67a5.35,5.35,0,0,0,0,8.9l1,.67v.53H2.26v4.52H0V70H20.32V63.23H18.06Zm-7.9-42.9a3.38,3.38,0,0,1,3.18,2.26H7A3.38,3.38,0,0,1,10.16,15.81ZM5.65,20.32h9a1.13,1.13,0,1,1,0,2.26h-9a1.13,1.13,0,1,1,0-2.26Zm0,4.52h9a1.13,1.13,0,1,1,0,2.26h-9a1.13,1.13,0,0,1,0-2.26Zm7.9,4.52v3.22a14.58,14.58,0,0,1-6,1.3H6.77V29.35ZM3.39,39.52a3.08,3.08,0,0,1,1.38-2.57L6,36.13H7.6a16.89,16.89,0,0,0,7.08-1.57v.89a2.26,2.26,0,0,1-1.94,2.23,10.76,10.76,0,0,0-7.46,4.74l-.51-.34A3.08,3.08,0,0,1,3.39,39.52Zm10.16.29v6.31a14.58,14.58,0,0,1-6,1.3H6.77V44.33a8.49,8.49,0,0,1,6.29-4.41A4.46,4.46,0,0,0,13.55,39.8ZM3.39,53.06a3.08,3.08,0,0,1,1.38-2.57L6,49.68H7.6a16.89,16.89,0,0,0,7.08-1.57V49a2.26,2.26,0,0,1-1.94,2.23A10.76,10.76,0,0,0,5.27,56l-.51-.34A3.08,3.08,0,0,1,3.39,53.06Zm10.16.29v5.36H6.77v-.83a8.49,8.49,0,0,1,6.29-4.41A4.46,4.46,0,0,0,13.55,53.35ZM4.52,61H15.81v2.26H4.52Zm13.55,6.77H2.26V65.48H18.06Z" style="fill:#ffce51"/></svg>